<svg xmlns="http://www.w3.org/2000/svg" viewBox="0 0 100 100">
  <style>
    .line { fill: none; stroke: #000; stroke-width: 1; stroke-linecap: round; stroke-linejoin: round; }
  </style>

  <!-- Book outer covers -->
  <path class="line" d="M1 9 L1 65 L45 80 L45 24 Z"/>
  <path class="line" d="M99 9 L99 65 L55 80 L55 24 Z"/>

  <!-- Spine center -->
  <path class="line" d="M45 24 L50 22 L55 24"/>
  <path class="line" d="M45 80 L50 82 L55 80"/>
  <path class="line" d="M50 22 L50 82"/>

  <!-- Top edge - multiple stacked pages left -->
  <path class="line" d="M1 9 L45 24"/>
  <path class="line" d="M3 8 L45 22"/>
  <path class="line" d="M5 7 L45 20"/>
  <path class="line" d="M7 6 L45 18"/>

  <!-- Top edge - multiple stacked pages right -->
  <path class="line" d="M99 9 L55 24"/>
  <path class="line" d="M97 8 L55 22"/>
  <path class="line" d="M95 7 L55 20"/>
  <path class="line" d="M93 6 L55 18"/>

  <!-- Bottom edge - multiple stacked pages left -->
  <path class="line" d="M1 65 L45 80"/>
  <path class="line" d="M3 64 L45 78"/>
  <path class="line" d="M5 63 L45 76"/>
  <path class="line" d="M7 62 L45 74"/>

  <!-- Bottom edge - multiple stacked pages right -->
  <path class="line" d="M99 65 L55 80"/>
  <path class="line" d="M97 64 L55 78"/>
  <path class="line" d="M95 63 L55 76"/>
  <path class="line" d="M93 62 L55 74"/>

</svg>
