<svg xmlns="http://www.w3.org/2000/svg" viewBox="0 0 100 100">
  <style>
    .line { fill: none; stroke: #000; stroke-width: 1; stroke-linecap: round; stroke-linejoin: round; }
    .git-icon { fill: #100f0d; }
  </style>
  <!-- Book outer covers -->
  <path class="line" d="M1 9 L1 65 L45 80 L45 24 Z"/>
  <path class="line" d="M99 9 L99 65 L55 80 L55 24 Z"/>
  <!-- Spine center -->
  <path class="line" d="M45 24 L50 22 L55 24"/>
  <path class="line" d="M45 80 L50 82 L55 80"/>
  <path class="line" d="M50 22 L50 82"/>
  <!-- Top edge - multiple stacked pages left -->
  <path class="line" d="M1 9 L45 24"/>
  <path class="line" d="M3 8 L45 22"/>
  <path class="line" d="M5 7 L45 20"/>
  <path class="line" d="M7 6 L45 18"/>
  <!-- Top edge - multiple stacked pages right -->
  <path class="line" d="M99 9 L55 24"/>
  <path class="line" d="M97 8 L55 22"/>
  <path class="line" d="M95 7 L55 20"/>
  <path class="line" d="M93 6 L55 18"/>
  <!-- Bottom edge - multiple stacked pages left -->
  <path class="line" d="M1 65 L45 80"/>
  <path class="line" d="M3 64 L45 78"/>
  <path class="line" d="M5 63 L45 76"/>
  <path class="line" d="M7 62 L45 74"/>
  <!-- Bottom edge - multiple stacked pages right -->
  <path class="line" d="M99 65 L55 80"/>
  <path class="line" d="M97 64 L55 78"/>
  <path class="line" d="M95 63 L55 76"/>
  <path class="line" d="M93 62 L55 74"/>
  
  <!-- Git icon on left cover with perspective (inverted colors) -->
  <g transform="translate(10, 30) scale(0.25) skewY(12)">
    <defs>
      <clipPath id="circleClipLeft">
        <circle cx="46" cy="46" r="46"/>
      </clipPath>
    </defs>
    <!-- Black circle background -->
    <circle cx="46" cy="46" r="46" fill="#100f0d"/>
    <!-- Git icon clipped to circle with white fill -->
    <g clip-path="url(#circleClipLeft)">
      <path fill="#fff" d="M90.156 41.965 50.036 1.848a5.913 5.913 0 0 0-8.368 0l-8.332 8.332 10.566 10.566a7.03 7.03 0 0 1 7.23 1.684 7.043 7.043 0 0 1 1.673 7.277l10.183 10.184a7.026 7.026 0 0 1 7.278 1.672 7.04 7.04 0 0 1 0 9.957 7.045 7.045 0 0 1-9.961 0 7.038 7.038 0 0 1-1.532-7.66l-9.5-9.497V59.36a7.04 7.04 0 0 1 1.86 11.29 7.04 7.04 0 0 1-9.957 0 7.04 7.04 0 0 1 0-9.958 7.034 7.034 0 0 1 2.308-1.539V33.926a7.001 7.001 0 0 1-2.308-1.535 7.049 7.049 0 0 1-1.516-7.7L29.242 14.273 1.734 41.777a5.918 5.918 0 0 0 0 8.371L41.855 90.27a5.92 5.92 0 0 0 8.368 0l39.933-39.934a5.925 5.925 0 0 0 0-8.371"/>
    </g>
    <!-- Circle outline -->
    <circle cx="46" cy="46" r="46" fill="none" stroke="#000" stroke-width="2"/>
  </g>
</svg>
